<?xml version="1.0" encoding="utf-8" standalone="no"?>
<!DOCTYPE svg PUBLIC "-//W3C//DTD SVG 1.1//EN"
  "http://www.w3.org/Graphics/SVG/1.1/DTD/svg11.dtd">
<svg xmlns:xlink="http://www.w3.org/1999/xlink" width="473.305431pt" height="242.861383pt" viewBox="0 0 473.305431 242.861383" xmlns="http://www.w3.org/2000/svg" version="1.1">
 <metadata>
  <rdf:RDF xmlns:dc="http://purl.org/dc/elements/1.1/" xmlns:cc="http://creativecommons.org/ns#" xmlns:rdf="http://www.w3.org/1999/02/22-rdf-syntax-ns#">
   <cc:Work>
    <dc:type rdf:resource="http://purl.org/dc/dcmitype/StillImage"/>
    <dc:date>2026-05-03T12:21:27.479691</dc:date>
    <dc:format>image/svg+xml</dc:format>
    <dc:creator>
     <cc:Agent>
      <dc:title>Matplotlib v3.10.3, https://matplotlib.org/</dc:title>
     </cc:Agent>
    </dc:creator>
   </cc:Work>
  </rdf:RDF>
 </metadata>
 <defs>
  <style type="text/css">*{stroke-linejoin: round; stroke-linecap: butt}</style>
 </defs>
 <g id="figure_1">
  <g id="patch_1">
   <path d="M 0 242.861383 
L 473.305431 242.861383 
L 473.305431 0 
L 0 0 
z
" style="fill: #ffffff"/>
  </g>
  <g id="axes_1">
   <g id="patch_2">
    <path d="M 49.978125 187.978121 
L 439.655946 187.978121 
L 439.655946 21.558281 
L 49.978125 21.558281 
z
" style="fill: #ffffff"/>
   </g>
   <g id="patch_3">
    <path d="M 67.690753 29535.726762 
L 193.393276 29535.726762 
L 193.393276 166.965428 
L 67.690753 166.965428 
z
" clip-path="url(#p55ff1df5af)" style="fill: #fde68a; stroke: #ffffff; stroke-width: 1.2; stroke-linejoin: miter"/>
   </g>
   <g id="patch_4">
    <path d="M 296.240795 29535.726762 
L 421.943318 29535.726762 
L 421.943318 61.478232 
L 296.240795 61.478232 
z
" clip-path="url(#p55ff1df5af)" style="fill: #a5b4fc; stroke: #ffffff; stroke-width: 1.2; stroke-linejoin: miter"/>
   </g>
   <g id="matplotlib.axis_1">
    <g id="xtick_1">
     <g id="line2d_1">
      <defs>
       <path id="md4e0aab82f" d="M 0 0 
L 0 3.5 
" style="stroke: #1e293b; stroke-width: 0.8"/>
      </defs>
      <g>
       <use xlink:href="#md4e0aab82f" x="130.542015" y="187.978121" style="fill: #1e293b; stroke: #1e293b; stroke-width: 0.8"/>
      </g>
     </g>
     <g id="text_1">
      <!-- On-chip SRAM -->
      <g style="fill: #1e293b" transform="translate(95.380296 202.576559) scale(0.1 -0.1)">
       <defs>
        <path id="DejaVuSans-4f" d="M 2522 4238 
Q 1834 4238 1429 3725 
Q 1025 3213 1025 2328 
Q 1025 1447 1429 934 
Q 1834 422 2522 422 
Q 3209 422 3611 934 
Q 4013 1447 4013 2328 
Q 4013 3213 3611 3725 
Q 3209 4238 2522 4238 
z
M 2522 4750 
Q 3503 4750 4090 4092 
Q 4678 3434 4678 2328 
Q 4678 1225 4090 567 
Q 3503 -91 2522 -91 
Q 1538 -91 948 565 
Q 359 1222 359 2328 
Q 359 3434 948 4092 
Q 1538 4750 2522 4750 
z
" transform="scale(0.015625)"/>
        <path id="DejaVuSans-6e" d="M 3513 2113 
L 3513 0 
L 2938 0 
L 2938 2094 
Q 2938 2591 2744 2837 
Q 2550 3084 2163 3084 
Q 1697 3084 1428 2787 
Q 1159 2491 1159 1978 
L 1159 0 
L 581 0 
L 581 3500 
L 1159 3500 
L 1159 2956 
Q 1366 3272 1645 3428 
Q 1925 3584 2291 3584 
Q 2894 3584 3203 3211 
Q 3513 2838 3513 2113 
z
" transform="scale(0.015625)"/>
        <path id="DejaVuSans-2d" d="M 313 2009 
L 1997 2009 
L 1997 1497 
L 313 1497 
L 313 2009 
z
" transform="scale(0.015625)"/>
        <path id="DejaVuSans-63" d="M 3122 3366 
L 3122 2828 
Q 2878 2963 2633 3030 
Q 2388 3097 2138 3097 
Q 1578 3097 1268 2742 
Q 959 2388 959 1747 
Q 959 1106 1268 751 
Q 1578 397 2138 397 
Q 2388 397 2633 464 
Q 2878 531 3122 666 
L 3122 134 
Q 2881 22 2623 -34 
Q 2366 -91 2075 -91 
Q 1284 -91 818 406 
Q 353 903 353 1747 
Q 353 2603 823 3093 
Q 1294 3584 2113 3584 
Q 2378 3584 2631 3529 
Q 2884 3475 3122 3366 
z
" transform="scale(0.015625)"/>
        <path id="DejaVuSans-68" d="M 3513 2113 
L 3513 0 
L 2938 0 
L 2938 2094 
Q 2938 2591 2744 2837 
Q 2550 3084 2163 3084 
Q 1697 3084 1428 2787 
Q 1159 2491 1159 1978 
L 1159 0 
L 581 0 
L 581 4863 
L 1159 4863 
L 1159 2956 
Q 1366 3272 1645 3428 
Q 1925 3584 2291 3584 
Q 2894 3584 3203 3211 
Q 3513 2838 3513 2113 
z
" transform="scale(0.015625)"/>
        <path id="DejaVuSans-69" d="M 603 3500 
L 1178 3500 
L 1178 0 
L 603 0 
L 603 3500 
z
M 603 4863 
L 1178 4863 
L 1178 4134 
L 603 4134 
L 603 4863 
z
" transform="scale(0.015625)"/>
        <path id="DejaVuSans-70" d="M 1159 525 
L 1159 -1331 
L 581 -1331 
L 581 3500 
L 1159 3500 
L 1159 2969 
Q 1341 3281 1617 3432 
Q 1894 3584 2278 3584 
Q 2916 3584 3314 3078 
Q 3713 2572 3713 1747 
Q 3713 922 3314 415 
Q 2916 -91 2278 -91 
Q 1894 -91 1617 61 
Q 1341 213 1159 525 
z
M 3116 1747 
Q 3116 2381 2855 2742 
Q 2594 3103 2138 3103 
Q 1681 3103 1420 2742 
Q 1159 2381 1159 1747 
Q 1159 1113 1420 752 
Q 1681 391 2138 391 
Q 2594 391 2855 752 
Q 3116 1113 3116 1747 
z
" transform="scale(0.015625)"/>
        <path id="DejaVuSans-20" transform="scale(0.015625)"/>
        <path id="DejaVuSans-53" d="M 3425 4513 
L 3425 3897 
Q 3066 4069 2747 4153 
Q 2428 4238 2131 4238 
Q 1616 4238 1336 4038 
Q 1056 3838 1056 3469 
Q 1056 3159 1242 3001 
Q 1428 2844 1947 2747 
L 2328 2669 
Q 3034 2534 3370 2195 
Q 3706 1856 3706 1288 
Q 3706 609 3251 259 
Q 2797 -91 1919 -91 
Q 1588 -91 1214 -16 
Q 841 59 441 206 
L 441 856 
Q 825 641 1194 531 
Q 1563 422 1919 422 
Q 2459 422 2753 634 
Q 3047 847 3047 1241 
Q 3047 1584 2836 1778 
Q 2625 1972 2144 2069 
L 1759 2144 
Q 1053 2284 737 2584 
Q 422 2884 422 3419 
Q 422 4038 858 4394 
Q 1294 4750 2059 4750 
Q 2388 4750 2728 4690 
Q 3069 4631 3425 4513 
z
" transform="scale(0.015625)"/>
        <path id="DejaVuSans-52" d="M 2841 2188 
Q 3044 2119 3236 1894 
Q 3428 1669 3622 1275 
L 4263 0 
L 3584 0 
L 2988 1197 
Q 2756 1666 2539 1819 
Q 2322 1972 1947 1972 
L 1259 1972 
L 1259 0 
L 628 0 
L 628 4666 
L 2053 4666 
Q 2853 4666 3247 4331 
Q 3641 3997 3641 3322 
Q 3641 2881 3436 2590 
Q 3231 2300 2841 2188 
z
M 1259 4147 
L 1259 2491 
L 2053 2491 
Q 2509 2491 2742 2702 
Q 2975 2913 2975 3322 
Q 2975 3731 2742 3939 
Q 2509 4147 2053 4147 
L 1259 4147 
z
" transform="scale(0.015625)"/>
        <path id="DejaVuSans-41" d="M 2188 4044 
L 1331 1722 
L 3047 1722 
L 2188 4044 
z
M 1831 4666 
L 2547 4666 
L 4325 0 
L 3669 0 
L 3244 1197 
L 1141 1197 
L 716 0 
L 50 0 
L 1831 4666 
z
" transform="scale(0.015625)"/>
        <path id="DejaVuSans-4d" d="M 628 4666 
L 1569 4666 
L 2759 1491 
L 3956 4666 
L 4897 4666 
L 4897 0 
L 4281 0 
L 4281 4097 
L 3078 897 
L 2444 897 
L 1241 4097 
L 1241 0 
L 628 0 
L 628 4666 
z
" transform="scale(0.015625)"/>
       </defs>
       <use xlink:href="#DejaVuSans-4f"/>
       <use xlink:href="#DejaVuSans-6e" transform="translate(78.710938 0)"/>
       <use xlink:href="#DejaVuSans-2d" transform="translate(142.089844 0)"/>
       <use xlink:href="#DejaVuSans-63" transform="translate(178.173828 0)"/>
       <use xlink:href="#DejaVuSans-68" transform="translate(233.154297 0)"/>
       <use xlink:href="#DejaVuSans-69" transform="translate(296.533203 0)"/>
       <use xlink:href="#DejaVuSans-70" transform="translate(324.316406 0)"/>
       <use xlink:href="#DejaVuSans-20" transform="translate(387.792969 0)"/>
       <use xlink:href="#DejaVuSans-53" transform="translate(419.580078 0)"/>
       <use xlink:href="#DejaVuSans-52" transform="translate(483.056641 0)"/>
       <use xlink:href="#DejaVuSans-41" transform="translate(548.539062 0)"/>
       <use xlink:href="#DejaVuSans-4d" transform="translate(616.947266 0)"/>
      </g>
      <!-- (per core, TCM) -->
      <g style="fill: #1e293b" transform="translate(92.173265 213.774371) scale(0.1 -0.1)">
       <defs>
        <path id="DejaVuSans-28" d="M 1984 4856 
Q 1566 4138 1362 3434 
Q 1159 2731 1159 2009 
Q 1159 1288 1364 580 
Q 1569 -128 1984 -844 
L 1484 -844 
Q 1016 -109 783 600 
Q 550 1309 550 2009 
Q 550 2706 781 3412 
Q 1013 4119 1484 4856 
L 1984 4856 
z
" transform="scale(0.015625)"/>
        <path id="DejaVuSans-65" d="M 3597 1894 
L 3597 1613 
L 953 1613 
Q 991 1019 1311 708 
Q 1631 397 2203 397 
Q 2534 397 2845 478 
Q 3156 559 3463 722 
L 3463 178 
Q 3153 47 2828 -22 
Q 2503 -91 2169 -91 
Q 1331 -91 842 396 
Q 353 884 353 1716 
Q 353 2575 817 3079 
Q 1281 3584 2069 3584 
Q 2775 3584 3186 3129 
Q 3597 2675 3597 1894 
z
M 3022 2063 
Q 3016 2534 2758 2815 
Q 2500 3097 2075 3097 
Q 1594 3097 1305 2825 
Q 1016 2553 972 2059 
L 3022 2063 
z
" transform="scale(0.015625)"/>
        <path id="DejaVuSans-72" d="M 2631 2963 
Q 2534 3019 2420 3045 
Q 2306 3072 2169 3072 
Q 1681 3072 1420 2755 
Q 1159 2438 1159 1844 
L 1159 0 
L 581 0 
L 581 3500 
L 1159 3500 
L 1159 2956 
Q 1341 3275 1631 3429 
Q 1922 3584 2338 3584 
Q 2397 3584 2469 3576 
Q 2541 3569 2628 3553 
L 2631 2963 
z
" transform="scale(0.015625)"/>
        <path id="DejaVuSans-6f" d="M 1959 3097 
Q 1497 3097 1228 2736 
Q 959 2375 959 1747 
Q 959 1119 1226 758 
Q 1494 397 1959 397 
Q 2419 397 2687 759 
Q 2956 1122 2956 1747 
Q 2956 2369 2687 2733 
Q 2419 3097 1959 3097 
z
M 1959 3584 
Q 2709 3584 3137 3096 
Q 3566 2609 3566 1747 
Q 3566 888 3137 398 
Q 2709 -91 1959 -91 
Q 1206 -91 779 398 
Q 353 888 353 1747 
Q 353 2609 779 3096 
Q 1206 3584 1959 3584 
z
" transform="scale(0.015625)"/>
        <path id="DejaVuSans-2c" d="M 750 794 
L 1409 794 
L 1409 256 
L 897 -744 
L 494 -744 
L 750 256 
L 750 794 
z
" transform="scale(0.015625)"/>
        <path id="DejaVuSans-54" d="M -19 4666 
L 3928 4666 
L 3928 4134 
L 2272 4134 
L 2272 0 
L 1638 0 
L 1638 4134 
L -19 4134 
L -19 4666 
z
" transform="scale(0.015625)"/>
        <path id="DejaVuSans-43" d="M 4122 4306 
L 4122 3641 
Q 3803 3938 3442 4084 
Q 3081 4231 2675 4231 
Q 1875 4231 1450 3742 
Q 1025 3253 1025 2328 
Q 1025 1406 1450 917 
Q 1875 428 2675 428 
Q 3081 428 3442 575 
Q 3803 722 4122 1019 
L 4122 359 
Q 3791 134 3420 21 
Q 3050 -91 2638 -91 
Q 1578 -91 968 557 
Q 359 1206 359 2328 
Q 359 3453 968 4101 
Q 1578 4750 2638 4750 
Q 3056 4750 3426 4639 
Q 3797 4528 4122 4306 
z
" transform="scale(0.015625)"/>
        <path id="DejaVuSans-29" d="M 513 4856 
L 1013 4856 
Q 1481 4119 1714 3412 
Q 1947 2706 1947 2009 
Q 1947 1309 1714 600 
Q 1481 -109 1013 -844 
L 513 -844 
Q 928 -128 1133 580 
Q 1338 1288 1338 2009 
Q 1338 2731 1133 3434 
Q 928 4138 513 4856 
z
" transform="scale(0.015625)"/>
       </defs>
       <use xlink:href="#DejaVuSans-28"/>
       <use xlink:href="#DejaVuSans-70" transform="translate(39.013672 0)"/>
       <use xlink:href="#DejaVuSans-65" transform="translate(102.490234 0)"/>
       <use xlink:href="#DejaVuSans-72" transform="translate(164.013672 0)"/>
       <use xlink:href="#DejaVuSans-20" transform="translate(205.126953 0)"/>
       <use xlink:href="#DejaVuSans-63" transform="translate(236.914062 0)"/>
       <use xlink:href="#DejaVuSans-6f" transform="translate(291.894531 0)"/>
       <use xlink:href="#DejaVuSans-72" transform="translate(353.076172 0)"/>
       <use xlink:href="#DejaVuSans-65" transform="translate(391.939453 0)"/>
       <use xlink:href="#DejaVuSans-2c" transform="translate(453.462891 0)"/>
       <use xlink:href="#DejaVuSans-20" transform="translate(485.25 0)"/>
       <use xlink:href="#DejaVuSans-54" transform="translate(517.037109 0)"/>
       <use xlink:href="#DejaVuSans-43" transform="translate(572.246094 0)"/>
       <use xlink:href="#DejaVuSans-4d" transform="translate(642.070312 0)"/>
       <use xlink:href="#DejaVuSans-29" transform="translate(728.349609 0)"/>
      </g>
     </g>
    </g>
    <g id="xtick_2">
     <g id="line2d_2">
      <g>
       <use xlink:href="#md4e0aab82f" x="359.092056" y="187.978121" style="fill: #1e293b; stroke: #1e293b; stroke-width: 0.8"/>
      </g>
     </g>
     <g id="text_2">
      <!-- System DRAM -->
      <g style="fill: #1e293b" transform="translate(323.999087 202.576559) scale(0.1 -0.1)">
       <defs>
        <path id="DejaVuSans-79" d="M 2059 -325 
Q 1816 -950 1584 -1140 
Q 1353 -1331 966 -1331 
L 506 -1331 
L 506 -850 
L 844 -850 
Q 1081 -850 1212 -737 
Q 1344 -625 1503 -206 
L 1606 56 
L 191 3500 
L 800 3500 
L 1894 763 
L 2988 3500 
L 3597 3500 
L 2059 -325 
z
" transform="scale(0.015625)"/>
        <path id="DejaVuSans-73" d="M 2834 3397 
L 2834 2853 
Q 2591 2978 2328 3040 
Q 2066 3103 1784 3103 
Q 1356 3103 1142 2972 
Q 928 2841 928 2578 
Q 928 2378 1081 2264 
Q 1234 2150 1697 2047 
L 1894 2003 
Q 2506 1872 2764 1633 
Q 3022 1394 3022 966 
Q 3022 478 2636 193 
Q 2250 -91 1575 -91 
Q 1294 -91 989 -36 
Q 684 19 347 128 
L 347 722 
Q 666 556 975 473 
Q 1284 391 1588 391 
Q 1994 391 2212 530 
Q 2431 669 2431 922 
Q 2431 1156 2273 1281 
Q 2116 1406 1581 1522 
L 1381 1569 
Q 847 1681 609 1914 
Q 372 2147 372 2553 
Q 372 3047 722 3315 
Q 1072 3584 1716 3584 
Q 2034 3584 2315 3537 
Q 2597 3491 2834 3397 
z
" transform="scale(0.015625)"/>
        <path id="DejaVuSans-74" d="M 1172 4494 
L 1172 3500 
L 2356 3500 
L 2356 3053 
L 1172 3053 
L 1172 1153 
Q 1172 725 1289 603 
Q 1406 481 1766 481 
L 2356 481 
L 2356 0 
L 1766 0 
Q 1100 0 847 248 
Q 594 497 594 1153 
L 594 3053 
L 172 3053 
L 172 3500 
L 594 3500 
L 594 4494 
L 1172 4494 
z
" transform="scale(0.015625)"/>
        <path id="DejaVuSans-6d" d="M 3328 2828 
Q 3544 3216 3844 3400 
Q 4144 3584 4550 3584 
Q 5097 3584 5394 3201 
Q 5691 2819 5691 2113 
L 5691 0 
L 5113 0 
L 5113 2094 
Q 5113 2597 4934 2840 
Q 4756 3084 4391 3084 
Q 3944 3084 3684 2787 
Q 3425 2491 3425 1978 
L 3425 0 
L 2847 0 
L 2847 2094 
Q 2847 2600 2669 2842 
Q 2491 3084 2119 3084 
Q 1678 3084 1418 2786 
Q 1159 2488 1159 1978 
L 1159 0 
L 581 0 
L 581 3500 
L 1159 3500 
L 1159 2956 
Q 1356 3278 1631 3431 
Q 1906 3584 2284 3584 
Q 2666 3584 2933 3390 
Q 3200 3197 3328 2828 
z
" transform="scale(0.015625)"/>
        <path id="DejaVuSans-44" d="M 1259 4147 
L 1259 519 
L 2022 519 
Q 2988 519 3436 956 
Q 3884 1394 3884 2338 
Q 3884 3275 3436 3711 
Q 2988 4147 2022 4147 
L 1259 4147 
z
M 628 4666 
L 1925 4666 
Q 3281 4666 3915 4102 
Q 4550 3538 4550 2338 
Q 4550 1131 3912 565 
Q 3275 0 1925 0 
L 628 0 
L 628 4666 
z
" transform="scale(0.015625)"/>
       </defs>
       <use xlink:href="#DejaVuSans-53"/>
       <use xlink:href="#DejaVuSans-79" transform="translate(63.476562 0)"/>
       <use xlink:href="#DejaVuSans-73" transform="translate(122.65625 0)"/>
       <use xlink:href="#DejaVuSans-74" transform="translate(174.755859 0)"/>
       <use xlink:href="#DejaVuSans-65" transform="translate(213.964844 0)"/>
       <use xlink:href="#DejaVuSans-6d" transform="translate(275.488281 0)"/>
       <use xlink:href="#DejaVuSans-20" transform="translate(372.900391 0)"/>
       <use xlink:href="#DejaVuSans-44" transform="translate(404.6875 0)"/>
       <use xlink:href="#DejaVuSans-52" transform="translate(481.689453 0)"/>
       <use xlink:href="#DejaVuSans-41" transform="translate(547.171875 0)"/>
       <use xlink:href="#DejaVuSans-4d" transform="translate(615.580078 0)"/>
      </g>
      <!-- (controller envelope) -->
      <g style="fill: #1e293b" transform="translate(306.770962 213.774371) scale(0.1 -0.1)">
       <defs>
        <path id="DejaVuSans-6c" d="M 603 4863 
L 1178 4863 
L 1178 0 
L 603 0 
L 603 4863 
z
" transform="scale(0.015625)"/>
        <path id="DejaVuSans-76" d="M 191 3500 
L 800 3500 
L 1894 563 
L 2988 3500 
L 3597 3500 
L 2284 0 
L 1503 0 
L 191 3500 
z
" transform="scale(0.015625)"/>
       </defs>
       <use xlink:href="#DejaVuSans-28"/>
       <use xlink:href="#DejaVuSans-63" transform="translate(39.013672 0)"/>
       <use xlink:href="#DejaVuSans-6f" transform="translate(93.994141 0)"/>
       <use xlink:href="#DejaVuSans-6e" transform="translate(155.175781 0)"/>
       <use xlink:href="#DejaVuSans-74" transform="translate(218.554688 0)"/>
       <use xlink:href="#DejaVuSans-72" transform="translate(257.763672 0)"/>
       <use xlink:href="#DejaVuSans-6f" transform="translate(296.626953 0)"/>
       <use xlink:href="#DejaVuSans-6c" transform="translate(357.808594 0)"/>
       <use xlink:href="#DejaVuSans-6c" transform="translate(385.591797 0)"/>
       <use xlink:href="#DejaVuSans-65" transform="translate(413.375 0)"/>
       <use xlink:href="#DejaVuSans-72" transform="translate(474.898438 0)"/>
       <use xlink:href="#DejaVuSans-20" transform="translate(516.011719 0)"/>
       <use xlink:href="#DejaVuSans-65" transform="translate(547.798828 0)"/>
       <use xlink:href="#DejaVuSans-6e" transform="translate(609.322266 0)"/>
       <use xlink:href="#DejaVuSans-76" transform="translate(672.701172 0)"/>
       <use xlink:href="#DejaVuSans-65" transform="translate(731.880859 0)"/>
       <use xlink:href="#DejaVuSans-6c" transform="translate(793.404297 0)"/>
       <use xlink:href="#DejaVuSans-6f" transform="translate(821.1875 0)"/>
       <use xlink:href="#DejaVuSans-70" transform="translate(882.369141 0)"/>
       <use xlink:href="#DejaVuSans-65" transform="translate(945.845703 0)"/>
       <use xlink:href="#DejaVuSans-29" transform="translate(1007.369141 0)"/>
      </g>
     </g>
    </g>
   </g>
   <g id="matplotlib.axis_2">
    <g id="ytick_1">
     <g id="line2d_3">
      <defs>
       <path id="m87adfcb461" d="M 0 0 
L -3.5 0 
" style="stroke: #1e293b; stroke-width: 0.8"/>
      </defs>
      <g>
       <use xlink:href="#m87adfcb461" x="49.978125" y="187.978121" style="fill: #1e293b; stroke: #1e293b; stroke-width: 0.8"/>
      </g>
     </g>
     <g id="text_3">
      <!-- $\mathdefault{10^{5}}$ -->
      <g style="fill: #1e293b" transform="translate(25.378125 191.77734) scale(0.1 -0.1)">
       <defs>
        <path id="DejaVuSans-31" d="M 794 531 
L 1825 531 
L 1825 4091 
L 703 3866 
L 703 4441 
L 1819 4666 
L 2450 4666 
L 2450 531 
L 3481 531 
L 3481 0 
L 794 0 
L 794 531 
z
" transform="scale(0.015625)"/>
        <path id="DejaVuSans-30" d="M 2034 4250 
Q 1547 4250 1301 3770 
Q 1056 3291 1056 2328 
Q 1056 1369 1301 889 
Q 1547 409 2034 409 
Q 2525 409 2770 889 
Q 3016 1369 3016 2328 
Q 3016 3291 2770 3770 
Q 2525 4250 2034 4250 
z
M 2034 4750 
Q 2819 4750 3233 4129 
Q 3647 3509 3647 2328 
Q 3647 1150 3233 529 
Q 2819 -91 2034 -91 
Q 1250 -91 836 529 
Q 422 1150 422 2328 
Q 422 3509 836 4129 
Q 1250 4750 2034 4750 
z
" transform="scale(0.015625)"/>
        <path id="DejaVuSans-35" d="M 691 4666 
L 3169 4666 
L 3169 4134 
L 1269 4134 
L 1269 2991 
Q 1406 3038 1543 3061 
Q 1681 3084 1819 3084 
Q 2600 3084 3056 2656 
Q 3513 2228 3513 1497 
Q 3513 744 3044 326 
Q 2575 -91 1722 -91 
Q 1428 -91 1123 -41 
Q 819 9 494 109 
L 494 744 
Q 775 591 1075 516 
Q 1375 441 1709 441 
Q 2250 441 2565 725 
Q 2881 1009 2881 1497 
Q 2881 1984 2565 2268 
Q 2250 2553 1709 2553 
Q 1456 2553 1204 2497 
Q 953 2441 691 2322 
L 691 4666 
z
" transform="scale(0.015625)"/>
       </defs>
       <use xlink:href="#DejaVuSans-31" transform="translate(0 0.684375)"/>
       <use xlink:href="#DejaVuSans-30" transform="translate(63.623047 0.684375)"/>
       <use xlink:href="#DejaVuSans-35" transform="translate(128.203125 38.965625) scale(0.7)"/>
      </g>
     </g>
    </g>
    <g id="ytick_2">
     <g id="line2d_4">
      <g>
       <use xlink:href="#m87adfcb461" x="49.978125" y="158.776381" style="fill: #1e293b; stroke: #1e293b; stroke-width: 0.8"/>
      </g>
     </g>
     <g id="text_4">
      <!-- $\mathdefault{10^{6}}$ -->
      <g style="fill: #1e293b" transform="translate(25.378125 162.5756) scale(0.1 -0.1)">
       <defs>
        <path id="DejaVuSans-36" d="M 2113 2584 
Q 1688 2584 1439 2293 
Q 1191 2003 1191 1497 
Q 1191 994 1439 701 
Q 1688 409 2113 409 
Q 2538 409 2786 701 
Q 3034 994 3034 1497 
Q 3034 2003 2786 2293 
Q 2538 2584 2113 2584 
z
M 3366 4563 
L 3366 3988 
Q 3128 4100 2886 4159 
Q 2644 4219 2406 4219 
Q 1781 4219 1451 3797 
Q 1122 3375 1075 2522 
Q 1259 2794 1537 2939 
Q 1816 3084 2150 3084 
Q 2853 3084 3261 2657 
Q 3669 2231 3669 1497 
Q 3669 778 3244 343 
Q 2819 -91 2113 -91 
Q 1303 -91 875 529 
Q 447 1150 447 2328 
Q 447 3434 972 4092 
Q 1497 4750 2381 4750 
Q 2619 4750 2861 4703 
Q 3103 4656 3366 4563 
z
" transform="scale(0.015625)"/>
       </defs>
       <use xlink:href="#DejaVuSans-31" transform="translate(0 0.765625)"/>
       <use xlink:href="#DejaVuSans-30" transform="translate(63.623047 0.765625)"/>
       <use xlink:href="#DejaVuSans-36" transform="translate(128.203125 39.046875) scale(0.7)"/>
      </g>
     </g>
    </g>
    <g id="ytick_3">
     <g id="line2d_5">
      <g>
       <use xlink:href="#m87adfcb461" x="49.978125" y="129.574641" style="fill: #1e293b; stroke: #1e293b; stroke-width: 0.8"/>
      </g>
     </g>
     <g id="text_5">
      <!-- $\mathdefault{10^{7}}$ -->
      <g style="fill: #1e293b" transform="translate(25.378125 133.37386) scale(0.1 -0.1)">
       <defs>
        <path id="DejaVuSans-37" d="M 525 4666 
L 3525 4666 
L 3525 4397 
L 1831 0 
L 1172 0 
L 2766 4134 
L 525 4134 
L 525 4666 
z
" transform="scale(0.015625)"/>
       </defs>
       <use xlink:href="#DejaVuSans-31" transform="translate(0 0.684375)"/>
       <use xlink:href="#DejaVuSans-30" transform="translate(63.623047 0.684375)"/>
       <use xlink:href="#DejaVuSans-37" transform="translate(128.203125 38.965625) scale(0.7)"/>
      </g>
     </g>
    </g>
    <g id="ytick_4">
     <g id="line2d_6">
      <g>
       <use xlink:href="#m87adfcb461" x="49.978125" y="100.372901" style="fill: #1e293b; stroke: #1e293b; stroke-width: 0.8"/>
      </g>
     </g>
     <g id="text_6">
      <!-- $\mathdefault{10^{8}}$ -->
      <g style="fill: #1e293b" transform="translate(25.378125 104.17212) scale(0.1 -0.1)">
       <defs>
        <path id="DejaVuSans-38" d="M 2034 2216 
Q 1584 2216 1326 1975 
Q 1069 1734 1069 1313 
Q 1069 891 1326 650 
Q 1584 409 2034 409 
Q 2484 409 2743 651 
Q 3003 894 3003 1313 
Q 3003 1734 2745 1975 
Q 2488 2216 2034 2216 
z
M 1403 2484 
Q 997 2584 770 2862 
Q 544 3141 544 3541 
Q 544 4100 942 4425 
Q 1341 4750 2034 4750 
Q 2731 4750 3128 4425 
Q 3525 4100 3525 3541 
Q 3525 3141 3298 2862 
Q 3072 2584 2669 2484 
Q 3125 2378 3379 2068 
Q 3634 1759 3634 1313 
Q 3634 634 3220 271 
Q 2806 -91 2034 -91 
Q 1263 -91 848 271 
Q 434 634 434 1313 
Q 434 1759 690 2068 
Q 947 2378 1403 2484 
z
M 1172 3481 
Q 1172 3119 1398 2916 
Q 1625 2713 2034 2713 
Q 2441 2713 2670 2916 
Q 2900 3119 2900 3481 
Q 2900 3844 2670 4047 
Q 2441 4250 2034 4250 
Q 1625 4250 1398 4047 
Q 1172 3844 1172 3481 
z
" transform="scale(0.015625)"/>
       </defs>
       <use xlink:href="#DejaVuSans-31" transform="translate(0 0.765625)"/>
       <use xlink:href="#DejaVuSans-30" transform="translate(63.623047 0.765625)"/>
       <use xlink:href="#DejaVuSans-38" transform="translate(128.203125 39.046875) scale(0.7)"/>
      </g>
     </g>
    </g>
    <g id="ytick_5">
     <g id="line2d_7">
      <g>
       <use xlink:href="#m87adfcb461" x="49.978125" y="71.171161" style="fill: #1e293b; stroke: #1e293b; stroke-width: 0.8"/>
      </g>
     </g>
     <g id="text_7">
      <!-- $\mathdefault{10^{9}}$ -->
      <g style="fill: #1e293b" transform="translate(25.378125 74.97038) scale(0.1 -0.1)">
       <defs>
        <path id="DejaVuSans-39" d="M 703 97 
L 703 672 
Q 941 559 1184 500 
Q 1428 441 1663 441 
Q 2288 441 2617 861 
Q 2947 1281 2994 2138 
Q 2813 1869 2534 1725 
Q 2256 1581 1919 1581 
Q 1219 1581 811 2004 
Q 403 2428 403 3163 
Q 403 3881 828 4315 
Q 1253 4750 1959 4750 
Q 2769 4750 3195 4129 
Q 3622 3509 3622 2328 
Q 3622 1225 3098 567 
Q 2575 -91 1691 -91 
Q 1453 -91 1209 -44 
Q 966 3 703 97 
z
M 1959 2075 
Q 2384 2075 2632 2365 
Q 2881 2656 2881 3163 
Q 2881 3666 2632 3958 
Q 2384 4250 1959 4250 
Q 1534 4250 1286 3958 
Q 1038 3666 1038 3163 
Q 1038 2656 1286 2365 
Q 1534 2075 1959 2075 
z
" transform="scale(0.015625)"/>
       </defs>
       <use xlink:href="#DejaVuSans-31" transform="translate(0 0.765625)"/>
       <use xlink:href="#DejaVuSans-30" transform="translate(63.623047 0.765625)"/>
       <use xlink:href="#DejaVuSans-39" transform="translate(128.203125 39.046875) scale(0.7)"/>
      </g>
     </g>
    </g>
    <g id="ytick_6">
     <g id="line2d_8">
      <g>
       <use xlink:href="#m87adfcb461" x="49.978125" y="41.969422" style="fill: #1e293b; stroke: #1e293b; stroke-width: 0.8"/>
      </g>
     </g>
     <g id="text_8">
      <!-- $\mathdefault{10^{10}}$ -->
      <g style="fill: #1e293b" transform="translate(20.878125 45.76864) scale(0.1 -0.1)">
       <use xlink:href="#DejaVuSans-31" transform="translate(0 0.765625)"/>
       <use xlink:href="#DejaVuSans-30" transform="translate(63.623047 0.765625)"/>
       <use xlink:href="#DejaVuSans-31" transform="translate(128.203125 39.046875) scale(0.7)"/>
       <use xlink:href="#DejaVuSans-30" transform="translate(172.739258 39.046875) scale(0.7)"/>
      </g>
     </g>
    </g>
    <g id="ytick_7">
     <g id="line2d_9">
      <defs>
       <path id="mf6045930d9" d="M 0 0 
L -2 0 
" style="stroke: #1e293b; stroke-width: 0.6"/>
      </defs>
      <g>
       <use xlink:href="#mf6045930d9" x="49.978125" y="179.187522" style="fill: #1e293b; stroke: #1e293b; stroke-width: 0.6"/>
      </g>
     </g>
    </g>
    <g id="ytick_8">
     <g id="line2d_10">
      <g>
       <use xlink:href="#mf6045930d9" x="49.978125" y="174.04535" style="fill: #1e293b; stroke: #1e293b; stroke-width: 0.6"/>
      </g>
     </g>
    </g>
    <g id="ytick_9">
     <g id="line2d_11">
      <g>
       <use xlink:href="#mf6045930d9" x="49.978125" y="170.396922" style="fill: #1e293b; stroke: #1e293b; stroke-width: 0.6"/>
      </g>
     </g>
    </g>
    <g id="ytick_10">
     <g id="line2d_12">
      <g>
       <use xlink:href="#mf6045930d9" x="49.978125" y="167.566981" style="fill: #1e293b; stroke: #1e293b; stroke-width: 0.6"/>
      </g>
     </g>
    </g>
    <g id="ytick_11">
     <g id="line2d_13">
      <g>
       <use xlink:href="#mf6045930d9" x="49.978125" y="165.254751" style="fill: #1e293b; stroke: #1e293b; stroke-width: 0.6"/>
      </g>
     </g>
    </g>
    <g id="ytick_12">
     <g id="line2d_14">
      <g>
       <use xlink:href="#mf6045930d9" x="49.978125" y="163.299788" style="fill: #1e293b; stroke: #1e293b; stroke-width: 0.6"/>
      </g>
     </g>
    </g>
    <g id="ytick_13">
     <g id="line2d_15">
      <g>
       <use xlink:href="#mf6045930d9" x="49.978125" y="161.606322" style="fill: #1e293b; stroke: #1e293b; stroke-width: 0.6"/>
      </g>
     </g>
    </g>
    <g id="ytick_14">
     <g id="line2d_16">
      <g>
       <use xlink:href="#mf6045930d9" x="49.978125" y="160.11258" style="fill: #1e293b; stroke: #1e293b; stroke-width: 0.6"/>
      </g>
     </g>
    </g>
    <g id="ytick_15">
     <g id="line2d_17">
      <g>
       <use xlink:href="#mf6045930d9" x="49.978125" y="149.985782" style="fill: #1e293b; stroke: #1e293b; stroke-width: 0.6"/>
      </g>
     </g>
    </g>
    <g id="ytick_16">
     <g id="line2d_18">
      <g>
       <use xlink:href="#mf6045930d9" x="49.978125" y="144.843611" style="fill: #1e293b; stroke: #1e293b; stroke-width: 0.6"/>
      </g>
     </g>
    </g>
    <g id="ytick_17">
     <g id="line2d_19">
      <g>
       <use xlink:href="#mf6045930d9" x="49.978125" y="141.195182" style="fill: #1e293b; stroke: #1e293b; stroke-width: 0.6"/>
      </g>
     </g>
    </g>
    <g id="ytick_18">
     <g id="line2d_20">
      <g>
       <use xlink:href="#mf6045930d9" x="49.978125" y="138.365241" style="fill: #1e293b; stroke: #1e293b; stroke-width: 0.6"/>
      </g>
     </g>
    </g>
    <g id="ytick_19">
     <g id="line2d_21">
      <g>
       <use xlink:href="#mf6045930d9" x="49.978125" y="136.053011" style="fill: #1e293b; stroke: #1e293b; stroke-width: 0.6"/>
      </g>
     </g>
    </g>
    <g id="ytick_20">
     <g id="line2d_22">
      <g>
       <use xlink:href="#mf6045930d9" x="49.978125" y="134.098048" style="fill: #1e293b; stroke: #1e293b; stroke-width: 0.6"/>
      </g>
     </g>
    </g>
    <g id="ytick_21">
     <g id="line2d_23">
      <g>
       <use xlink:href="#mf6045930d9" x="49.978125" y="132.404582" style="fill: #1e293b; stroke: #1e293b; stroke-width: 0.6"/>
      </g>
     </g>
    </g>
    <g id="ytick_22">
     <g id="line2d_24">
      <g>
       <use xlink:href="#mf6045930d9" x="49.978125" y="130.91084" style="fill: #1e293b; stroke: #1e293b; stroke-width: 0.6"/>
      </g>
     </g>
    </g>
    <g id="ytick_23">
     <g id="line2d_25">
      <g>
       <use xlink:href="#mf6045930d9" x="49.978125" y="120.784042" style="fill: #1e293b; stroke: #1e293b; stroke-width: 0.6"/>
      </g>
     </g>
    </g>
    <g id="ytick_24">
     <g id="line2d_26">
      <g>
       <use xlink:href="#mf6045930d9" x="49.978125" y="115.641871" style="fill: #1e293b; stroke: #1e293b; stroke-width: 0.6"/>
      </g>
     </g>
    </g>
    <g id="ytick_25">
     <g id="line2d_27">
      <g>
       <use xlink:href="#mf6045930d9" x="49.978125" y="111.993442" style="fill: #1e293b; stroke: #1e293b; stroke-width: 0.6"/>
      </g>
     </g>
    </g>
    <g id="ytick_26">
     <g id="line2d_28">
      <g>
       <use xlink:href="#mf6045930d9" x="49.978125" y="109.163501" style="fill: #1e293b; stroke: #1e293b; stroke-width: 0.6"/>
      </g>
     </g>
    </g>
    <g id="ytick_27">
     <g id="line2d_29">
      <g>
       <use xlink:href="#mf6045930d9" x="49.978125" y="106.851271" style="fill: #1e293b; stroke: #1e293b; stroke-width: 0.6"/>
      </g>
     </g>
    </g>
    <g id="ytick_28">
     <g id="line2d_30">
      <g>
       <use xlink:href="#mf6045930d9" x="49.978125" y="104.896308" style="fill: #1e293b; stroke: #1e293b; stroke-width: 0.6"/>
      </g>
     </g>
    </g>
    <g id="ytick_29">
     <g id="line2d_31">
      <g>
       <use xlink:href="#mf6045930d9" x="49.978125" y="103.202842" style="fill: #1e293b; stroke: #1e293b; stroke-width: 0.6"/>
      </g>
     </g>
    </g>
    <g id="ytick_30">
     <g id="line2d_32">
      <g>
       <use xlink:href="#mf6045930d9" x="49.978125" y="101.7091" style="fill: #1e293b; stroke: #1e293b; stroke-width: 0.6"/>
      </g>
     </g>
    </g>
    <g id="ytick_31">
     <g id="line2d_33">
      <g>
       <use xlink:href="#mf6045930d9" x="49.978125" y="91.582302" style="fill: #1e293b; stroke: #1e293b; stroke-width: 0.6"/>
      </g>
     </g>
    </g>
    <g id="ytick_32">
     <g id="line2d_34">
      <g>
       <use xlink:href="#mf6045930d9" x="49.978125" y="86.440131" style="fill: #1e293b; stroke: #1e293b; stroke-width: 0.6"/>
      </g>
     </g>
    </g>
    <g id="ytick_33">
     <g id="line2d_35">
      <g>
       <use xlink:href="#mf6045930d9" x="49.978125" y="82.791702" style="fill: #1e293b; stroke: #1e293b; stroke-width: 0.6"/>
      </g>
     </g>
    </g>
    <g id="ytick_34">
     <g id="line2d_36">
      <g>
       <use xlink:href="#mf6045930d9" x="49.978125" y="79.961761" style="fill: #1e293b; stroke: #1e293b; stroke-width: 0.6"/>
      </g>
     </g>
    </g>
    <g id="ytick_35">
     <g id="line2d_37">
      <g>
       <use xlink:href="#mf6045930d9" x="49.978125" y="77.649531" style="fill: #1e293b; stroke: #1e293b; stroke-width: 0.6"/>
      </g>
     </g>
    </g>
    <g id="ytick_36">
     <g id="line2d_38">
      <g>
       <use xlink:href="#mf6045930d9" x="49.978125" y="75.694568" style="fill: #1e293b; stroke: #1e293b; stroke-width: 0.6"/>
      </g>
     </g>
    </g>
    <g id="ytick_37">
     <g id="line2d_39">
      <g>
       <use xlink:href="#mf6045930d9" x="49.978125" y="74.001102" style="fill: #1e293b; stroke: #1e293b; stroke-width: 0.6"/>
      </g>
     </g>
    </g>
    <g id="ytick_38">
     <g id="line2d_40">
      <g>
       <use xlink:href="#mf6045930d9" x="49.978125" y="72.50736" style="fill: #1e293b; stroke: #1e293b; stroke-width: 0.6"/>
      </g>
     </g>
    </g>
    <g id="ytick_39">
     <g id="line2d_41">
      <g>
       <use xlink:href="#mf6045930d9" x="49.978125" y="62.380562" style="fill: #1e293b; stroke: #1e293b; stroke-width: 0.6"/>
      </g>
     </g>
    </g>
    <g id="ytick_40">
     <g id="line2d_42">
      <g>
       <use xlink:href="#mf6045930d9" x="49.978125" y="57.238391" style="fill: #1e293b; stroke: #1e293b; stroke-width: 0.6"/>
      </g>
     </g>
    </g>
    <g id="ytick_41">
     <g id="line2d_43">
      <g>
       <use xlink:href="#mf6045930d9" x="49.978125" y="53.589962" style="fill: #1e293b; stroke: #1e293b; stroke-width: 0.6"/>
      </g>
     </g>
    </g>
    <g id="ytick_42">
     <g id="line2d_44">
      <g>
       <use xlink:href="#mf6045930d9" x="49.978125" y="50.760021" style="fill: #1e293b; stroke: #1e293b; stroke-width: 0.6"/>
      </g>
     </g>
    </g>
    <g id="ytick_43">
     <g id="line2d_45">
      <g>
       <use xlink:href="#mf6045930d9" x="49.978125" y="48.447791" style="fill: #1e293b; stroke: #1e293b; stroke-width: 0.6"/>
      </g>
     </g>
    </g>
    <g id="ytick_44">
     <g id="line2d_46">
      <g>
       <use xlink:href="#mf6045930d9" x="49.978125" y="46.492828" style="fill: #1e293b; stroke: #1e293b; stroke-width: 0.6"/>
      </g>
     </g>
    </g>
    <g id="ytick_45">
     <g id="line2d_47">
      <g>
       <use xlink:href="#mf6045930d9" x="49.978125" y="44.799363" style="fill: #1e293b; stroke: #1e293b; stroke-width: 0.6"/>
      </g>
     </g>
    </g>
    <g id="ytick_46">
     <g id="line2d_48">
      <g>
       <use xlink:href="#mf6045930d9" x="49.978125" y="43.30562" style="fill: #1e293b; stroke: #1e293b; stroke-width: 0.6"/>
      </g>
     </g>
    </g>
    <g id="ytick_47">
     <g id="line2d_49">
      <g>
       <use xlink:href="#mf6045930d9" x="49.978125" y="33.178822" style="fill: #1e293b; stroke: #1e293b; stroke-width: 0.6"/>
      </g>
     </g>
    </g>
    <g id="ytick_48">
     <g id="line2d_50">
      <g>
       <use xlink:href="#mf6045930d9" x="49.978125" y="28.036651" style="fill: #1e293b; stroke: #1e293b; stroke-width: 0.6"/>
      </g>
     </g>
    </g>
    <g id="ytick_49">
     <g id="line2d_51">
      <g>
       <use xlink:href="#mf6045930d9" x="49.978125" y="24.388222" style="fill: #1e293b; stroke: #1e293b; stroke-width: 0.6"/>
      </g>
     </g>
    </g>
    <g id="ytick_50">
     <g id="line2d_52">
      <g>
       <use xlink:href="#mf6045930d9" x="49.978125" y="21.558281" style="fill: #1e293b; stroke: #1e293b; stroke-width: 0.6"/>
      </g>
     </g>
    </g>
    <g id="text_9">
     <!-- Bytes (log scale) -->
     <g style="fill: #1e293b" transform="translate(14.798438 146.385389) rotate(-90) scale(0.1 -0.1)">
      <defs>
       <path id="DejaVuSans-42" d="M 1259 2228 
L 1259 519 
L 2272 519 
Q 2781 519 3026 730 
Q 3272 941 3272 1375 
Q 3272 1813 3026 2020 
Q 2781 2228 2272 2228 
L 1259 2228 
z
M 1259 4147 
L 1259 2741 
L 2194 2741 
Q 2656 2741 2882 2914 
Q 3109 3088 3109 3444 
Q 3109 3797 2882 3972 
Q 2656 4147 2194 4147 
L 1259 4147 
z
M 628 4666 
L 2241 4666 
Q 2963 4666 3353 4366 
Q 3744 4066 3744 3513 
Q 3744 3084 3544 2831 
Q 3344 2578 2956 2516 
Q 3422 2416 3680 2098 
Q 3938 1781 3938 1306 
Q 3938 681 3513 340 
Q 3088 0 2303 0 
L 628 0 
L 628 4666 
z
" transform="scale(0.015625)"/>
       <path id="DejaVuSans-67" d="M 2906 1791 
Q 2906 2416 2648 2759 
Q 2391 3103 1925 3103 
Q 1463 3103 1205 2759 
Q 947 2416 947 1791 
Q 947 1169 1205 825 
Q 1463 481 1925 481 
Q 2391 481 2648 825 
Q 2906 1169 2906 1791 
z
M 3481 434 
Q 3481 -459 3084 -895 
Q 2688 -1331 1869 -1331 
Q 1566 -1331 1297 -1286 
Q 1028 -1241 775 -1147 
L 775 -588 
Q 1028 -725 1275 -790 
Q 1522 -856 1778 -856 
Q 2344 -856 2625 -561 
Q 2906 -266 2906 331 
L 2906 616 
Q 2728 306 2450 153 
Q 2172 0 1784 0 
Q 1141 0 747 490 
Q 353 981 353 1791 
Q 353 2603 747 3093 
Q 1141 3584 1784 3584 
Q 2172 3584 2450 3431 
Q 2728 3278 2906 2969 
L 2906 3500 
L 3481 3500 
L 3481 434 
z
" transform="scale(0.015625)"/>
       <path id="DejaVuSans-61" d="M 2194 1759 
Q 1497 1759 1228 1600 
Q 959 1441 959 1056 
Q 959 750 1161 570 
Q 1363 391 1709 391 
Q 2188 391 2477 730 
Q 2766 1069 2766 1631 
L 2766 1759 
L 2194 1759 
z
M 3341 1997 
L 3341 0 
L 2766 0 
L 2766 531 
Q 2569 213 2275 61 
Q 1981 -91 1556 -91 
Q 1019 -91 701 211 
Q 384 513 384 1019 
Q 384 1609 779 1909 
Q 1175 2209 1959 2209 
L 2766 2209 
L 2766 2266 
Q 2766 2663 2505 2880 
Q 2244 3097 1772 3097 
Q 1472 3097 1187 3025 
Q 903 2953 641 2809 
L 641 3341 
Q 956 3463 1253 3523 
Q 1550 3584 1831 3584 
Q 2591 3584 2966 3190 
Q 3341 2797 3341 1997 
z
" transform="scale(0.015625)"/>
      </defs>
      <use xlink:href="#DejaVuSans-42"/>
      <use xlink:href="#DejaVuSans-79" transform="translate(68.603516 0)"/>
      <use xlink:href="#DejaVuSans-74" transform="translate(127.783203 0)"/>
      <use xlink:href="#DejaVuSans-65" transform="translate(166.992188 0)"/>
      <use xlink:href="#DejaVuSans-73" transform="translate(228.515625 0)"/>
      <use xlink:href="#DejaVuSans-20" transform="translate(280.615234 0)"/>
      <use xlink:href="#DejaVuSans-28" transform="translate(312.402344 0)"/>
      <use xlink:href="#DejaVuSans-6c" transform="translate(351.416016 0)"/>
      <use xlink:href="#DejaVuSans-6f" transform="translate(379.199219 0)"/>
      <use xlink:href="#DejaVuSans-67" transform="translate(440.380859 0)"/>
      <use xlink:href="#DejaVuSans-20" transform="translate(503.857422 0)"/>
      <use xlink:href="#DejaVuSans-73" transform="translate(535.644531 0)"/>
      <use xlink:href="#DejaVuSans-63" transform="translate(587.744141 0)"/>
      <use xlink:href="#DejaVuSans-61" transform="translate(642.724609 0)"/>
      <use xlink:href="#DejaVuSans-6c" transform="translate(704.003906 0)"/>
      <use xlink:href="#DejaVuSans-65" transform="translate(731.787109 0)"/>
      <use xlink:href="#DejaVuSans-29" transform="translate(793.310547 0)"/>
     </g>
    </g>
   </g>
   <g id="patch_5">
    <path d="M 49.978125 187.978121 
L 49.978125 21.558281 
" style="fill: none; stroke: #e2e8f0; stroke-width: 0.8; stroke-linejoin: miter; stroke-linecap: square"/>
   </g>
   <g id="patch_6">
    <path d="M 439.655946 187.978121 
L 439.655946 21.558281 
" style="fill: none; stroke: #e2e8f0; stroke-width: 0.8; stroke-linejoin: miter; stroke-linecap: square"/>
   </g>
   <g id="patch_7">
    <path d="M 49.978125 187.978121 
L 439.655946 187.978121 
" style="fill: none; stroke: #e2e8f0; stroke-width: 0.8; stroke-linejoin: miter; stroke-linecap: square"/>
   </g>
   <g id="patch_8">
    <path d="M 49.978125 21.558281 
L 439.655946 21.558281 
" style="fill: none; stroke: #e2e8f0; stroke-width: 0.8; stroke-linejoin: miter; stroke-linecap: square"/>
   </g>
   <g id="text_10">
    <!-- &lt; 1 MB class -->
    <g style="fill: #1e293b" transform="translate(103.091663 161.39172) scale(0.085 -0.085)">
     <defs>
      <path id="DejaVuSans-3c" d="M 4684 3150 
L 1459 2003 
L 4684 863 
L 4684 294 
L 678 1747 
L 678 2266 
L 4684 3719 
L 4684 3150 
z
" transform="scale(0.015625)"/>
     </defs>
     <use xlink:href="#DejaVuSans-3c"/>
     <use xlink:href="#DejaVuSans-20" transform="translate(83.789062 0)"/>
     <use xlink:href="#DejaVuSans-31" transform="translate(115.576172 0)"/>
     <use xlink:href="#DejaVuSans-20" transform="translate(179.199219 0)"/>
     <use xlink:href="#DejaVuSans-4d" transform="translate(210.986328 0)"/>
     <use xlink:href="#DejaVuSans-42" transform="translate(297.265625 0)"/>
     <use xlink:href="#DejaVuSans-20" transform="translate(365.869141 0)"/>
     <use xlink:href="#DejaVuSans-63" transform="translate(397.65625 0)"/>
     <use xlink:href="#DejaVuSans-6c" transform="translate(452.636719 0)"/>
     <use xlink:href="#DejaVuSans-61" transform="translate(480.419922 0)"/>
     <use xlink:href="#DejaVuSans-73" transform="translate(541.699219 0)"/>
     <use xlink:href="#DejaVuSans-73" transform="translate(593.798828 0)"/>
    </g>
   </g>
   <g id="text_11">
    <!-- ~2 GB (mid of 1–4 GB range) -->
    <g style="fill: #1e293b" transform="translate(296.981627 55.904525) scale(0.085 -0.085)">
     <defs>
      <path id="DejaVuSans-7e" d="M 4684 2553 
L 4684 1997 
Q 4356 1750 4076 1644 
Q 3797 1538 3494 1538 
Q 3150 1538 2694 1722 
Q 2659 1734 2644 1741 
Q 2622 1750 2575 1766 
Q 2091 1959 1797 1959 
Q 1522 1959 1253 1839 
Q 984 1719 678 1459 
L 678 2016 
Q 1006 2263 1286 2370 
Q 1566 2478 1869 2478 
Q 2213 2478 2672 2291 
Q 2703 2278 2719 2272 
Q 2744 2263 2788 2247 
Q 3272 2053 3566 2053 
Q 3834 2053 4098 2172 
Q 4363 2291 4684 2553 
z
" transform="scale(0.015625)"/>
      <path id="DejaVuSans-32" d="M 1228 531 
L 3431 531 
L 3431 0 
L 469 0 
L 469 531 
Q 828 903 1448 1529 
Q 2069 2156 2228 2338 
Q 2531 2678 2651 2914 
Q 2772 3150 2772 3378 
Q 2772 3750 2511 3984 
Q 2250 4219 1831 4219 
Q 1534 4219 1204 4116 
Q 875 4013 500 3803 
L 500 4441 
Q 881 4594 1212 4672 
Q 1544 4750 1819 4750 
Q 2544 4750 2975 4387 
Q 3406 4025 3406 3419 
Q 3406 3131 3298 2873 
Q 3191 2616 2906 2266 
Q 2828 2175 2409 1742 
Q 1991 1309 1228 531 
z
" transform="scale(0.015625)"/>
      <path id="DejaVuSans-47" d="M 3809 666 
L 3809 1919 
L 2778 1919 
L 2778 2438 
L 4434 2438 
L 4434 434 
Q 4069 175 3628 42 
Q 3188 -91 2688 -91 
Q 1594 -91 976 548 
Q 359 1188 359 2328 
Q 359 3472 976 4111 
Q 1594 4750 2688 4750 
Q 3144 4750 3555 4637 
Q 3966 4525 4313 4306 
L 4313 3634 
Q 3963 3931 3569 4081 
Q 3175 4231 2741 4231 
Q 1884 4231 1454 3753 
Q 1025 3275 1025 2328 
Q 1025 1384 1454 906 
Q 1884 428 2741 428 
Q 3075 428 3337 486 
Q 3600 544 3809 666 
z
" transform="scale(0.015625)"/>
      <path id="DejaVuSans-64" d="M 2906 2969 
L 2906 4863 
L 3481 4863 
L 3481 0 
L 2906 0 
L 2906 525 
Q 2725 213 2448 61 
Q 2172 -91 1784 -91 
Q 1150 -91 751 415 
Q 353 922 353 1747 
Q 353 2572 751 3078 
Q 1150 3584 1784 3584 
Q 2172 3584 2448 3432 
Q 2725 3281 2906 2969 
z
M 947 1747 
Q 947 1113 1208 752 
Q 1469 391 1925 391 
Q 2381 391 2643 752 
Q 2906 1113 2906 1747 
Q 2906 2381 2643 2742 
Q 2381 3103 1925 3103 
Q 1469 3103 1208 2742 
Q 947 2381 947 1747 
z
" transform="scale(0.015625)"/>
      <path id="DejaVuSans-66" d="M 2375 4863 
L 2375 4384 
L 1825 4384 
Q 1516 4384 1395 4259 
Q 1275 4134 1275 3809 
L 1275 3500 
L 2222 3500 
L 2222 3053 
L 1275 3053 
L 1275 0 
L 697 0 
L 697 3053 
L 147 3053 
L 147 3500 
L 697 3500 
L 697 3744 
Q 697 4328 969 4595 
Q 1241 4863 1831 4863 
L 2375 4863 
z
" transform="scale(0.015625)"/>
      <path id="DejaVuSans-2013" d="M 313 1978 
L 2888 1978 
L 2888 1528 
L 313 1528 
L 313 1978 
z
" transform="scale(0.015625)"/>
      <path id="DejaVuSans-34" d="M 2419 4116 
L 825 1625 
L 2419 1625 
L 2419 4116 
z
M 2253 4666 
L 3047 4666 
L 3047 1625 
L 3713 1625 
L 3713 1100 
L 3047 1100 
L 3047 0 
L 2419 0 
L 2419 1100 
L 313 1100 
L 313 1709 
L 2253 4666 
z
" transform="scale(0.015625)"/>
     </defs>
     <use xlink:href="#DejaVuSans-7e"/>
     <use xlink:href="#DejaVuSans-32" transform="translate(83.789062 0)"/>
     <use xlink:href="#DejaVuSans-20" transform="translate(147.412109 0)"/>
     <use xlink:href="#DejaVuSans-47" transform="translate(179.199219 0)"/>
     <use xlink:href="#DejaVuSans-42" transform="translate(256.689453 0)"/>
     <use xlink:href="#DejaVuSans-20" transform="translate(325.292969 0)"/>
     <use xlink:href="#DejaVuSans-28" transform="translate(357.080078 0)"/>
     <use xlink:href="#DejaVuSans-6d" transform="translate(396.09375 0)"/>
     <use xlink:href="#DejaVuSans-69" transform="translate(493.505859 0)"/>
     <use xlink:href="#DejaVuSans-64" transform="translate(521.289062 0)"/>
     <use xlink:href="#DejaVuSans-20" transform="translate(584.765625 0)"/>
     <use xlink:href="#DejaVuSans-6f" transform="translate(616.552734 0)"/>
     <use xlink:href="#DejaVuSans-66" transform="translate(677.734375 0)"/>
     <use xlink:href="#DejaVuSans-20" transform="translate(712.939453 0)"/>
     <use xlink:href="#DejaVuSans-31" transform="translate(744.726562 0)"/>
     <use xlink:href="#DejaVuSans-2013" transform="translate(808.349609 0)"/>
     <use xlink:href="#DejaVuSans-34" transform="translate(858.349609 0)"/>
     <use xlink:href="#DejaVuSans-20" transform="translate(921.972656 0)"/>
     <use xlink:href="#DejaVuSans-47" transform="translate(953.759766 0)"/>
     <use xlink:href="#DejaVuSans-42" transform="translate(1031.25 0)"/>
     <use xlink:href="#DejaVuSans-20" transform="translate(1099.853516 0)"/>
     <use xlink:href="#DejaVuSans-72" transform="translate(1131.640625 0)"/>
     <use xlink:href="#DejaVuSans-61" transform="translate(1172.753906 0)"/>
     <use xlink:href="#DejaVuSans-6e" transform="translate(1234.033203 0)"/>
     <use xlink:href="#DejaVuSans-67" transform="translate(1297.412109 0)"/>
     <use xlink:href="#DejaVuSans-65" transform="translate(1360.888672 0)"/>
     <use xlink:href="#DejaVuSans-29" transform="translate(1422.412109 0)"/>
    </g>
   </g>
   <g id="text_12">
    <!-- Illustrative only: weight tiles exceed SRAM and stress DRAM headroom, which motivates quantization. -->
    <g style="fill: #64748b" transform="translate(57.771681 233.997633) scale(0.08 -0.08)">
     <defs>
      <path id="DejaVuSans-49" d="M 628 4666 
L 1259 4666 
L 1259 0 
L 628 0 
L 628 4666 
z
" transform="scale(0.015625)"/>
      <path id="DejaVuSans-75" d="M 544 1381 
L 544 3500 
L 1119 3500 
L 1119 1403 
Q 1119 906 1312 657 
Q 1506 409 1894 409 
Q 2359 409 2629 706 
Q 2900 1003 2900 1516 
L 2900 3500 
L 3475 3500 
L 3475 0 
L 2900 0 
L 2900 538 
Q 2691 219 2414 64 
Q 2138 -91 1772 -91 
Q 1169 -91 856 284 
Q 544 659 544 1381 
z
M 1991 3584 
L 1991 3584 
z
" transform="scale(0.015625)"/>
      <path id="DejaVuSans-3a" d="M 750 794 
L 1409 794 
L 1409 0 
L 750 0 
L 750 794 
z
M 750 3309 
L 1409 3309 
L 1409 2516 
L 750 2516 
L 750 3309 
z
" transform="scale(0.015625)"/>
      <path id="DejaVuSans-77" d="M 269 3500 
L 844 3500 
L 1563 769 
L 2278 3500 
L 2956 3500 
L 3675 769 
L 4391 3500 
L 4966 3500 
L 4050 0 
L 3372 0 
L 2619 2869 
L 1863 0 
L 1184 0 
L 269 3500 
z
" transform="scale(0.015625)"/>
      <path id="DejaVuSans-78" d="M 3513 3500 
L 2247 1797 
L 3578 0 
L 2900 0 
L 1881 1375 
L 863 0 
L 184 0 
L 1544 1831 
L 300 3500 
L 978 3500 
L 1906 2253 
L 2834 3500 
L 3513 3500 
z
" transform="scale(0.015625)"/>
      <path id="DejaVuSans-71" d="M 947 1747 
Q 947 1113 1208 752 
Q 1469 391 1925 391 
Q 2381 391 2643 752 
Q 2906 1113 2906 1747 
Q 2906 2381 2643 2742 
Q 2381 3103 1925 3103 
Q 1469 3103 1208 2742 
Q 947 2381 947 1747 
z
M 2906 525 
Q 2725 213 2448 61 
Q 2172 -91 1784 -91 
Q 1150 -91 751 415 
Q 353 922 353 1747 
Q 353 2572 751 3078 
Q 1150 3584 1784 3584 
Q 2172 3584 2448 3432 
Q 2725 3281 2906 2969 
L 2906 3500 
L 3481 3500 
L 3481 -1331 
L 2906 -1331 
L 2906 525 
z
" transform="scale(0.015625)"/>
      <path id="DejaVuSans-7a" d="M 353 3500 
L 3084 3500 
L 3084 2975 
L 922 459 
L 3084 459 
L 3084 0 
L 275 0 
L 275 525 
L 2438 3041 
L 353 3041 
L 353 3500 
z
" transform="scale(0.015625)"/>
      <path id="DejaVuSans-2e" d="M 684 794 
L 1344 794 
L 1344 0 
L 684 0 
L 684 794 
z
" transform="scale(0.015625)"/>
     </defs>
     <use xlink:href="#DejaVuSans-49"/>
     <use xlink:href="#DejaVuSans-6c" transform="translate(29.492188 0)"/>
     <use xlink:href="#DejaVuSans-6c" transform="translate(57.275391 0)"/>
     <use xlink:href="#DejaVuSans-75" transform="translate(85.058594 0)"/>
     <use xlink:href="#DejaVuSans-73" transform="translate(148.4375 0)"/>
     <use xlink:href="#DejaVuSans-74" transform="translate(200.537109 0)"/>
     <use xlink:href="#DejaVuSans-72" transform="translate(239.746094 0)"/>
     <use xlink:href="#DejaVuSans-61" transform="translate(280.859375 0)"/>
     <use xlink:href="#DejaVuSans-74" transform="translate(342.138672 0)"/>
     <use xlink:href="#DejaVuSans-69" transform="translate(381.347656 0)"/>
     <use xlink:href="#DejaVuSans-76" transform="translate(409.130859 0)"/>
     <use xlink:href="#DejaVuSans-65" transform="translate(468.310547 0)"/>
     <use xlink:href="#DejaVuSans-20" transform="translate(529.833984 0)"/>
     <use xlink:href="#DejaVuSans-6f" transform="translate(561.621094 0)"/>
     <use xlink:href="#DejaVuSans-6e" transform="translate(622.802734 0)"/>
     <use xlink:href="#DejaVuSans-6c" transform="translate(686.181641 0)"/>
     <use xlink:href="#DejaVuSans-79" transform="translate(713.964844 0)"/>
     <use xlink:href="#DejaVuSans-3a" transform="translate(765.894531 0)"/>
     <use xlink:href="#DejaVuSans-20" transform="translate(799.585938 0)"/>
     <use xlink:href="#DejaVuSans-77" transform="translate(831.373047 0)"/>
     <use xlink:href="#DejaVuSans-65" transform="translate(913.160156 0)"/>
     <use xlink:href="#DejaVuSans-69" transform="translate(974.683594 0)"/>
     <use xlink:href="#DejaVuSans-67" transform="translate(1002.466797 0)"/>
     <use xlink:href="#DejaVuSans-68" transform="translate(1065.943359 0)"/>
     <use xlink:href="#DejaVuSans-74" transform="translate(1129.322266 0)"/>
     <use xlink:href="#DejaVuSans-20" transform="translate(1168.53125 0)"/>
     <use xlink:href="#DejaVuSans-74" transform="translate(1200.318359 0)"/>
     <use xlink:href="#DejaVuSans-69" transform="translate(1239.527344 0)"/>
     <use xlink:href="#DejaVuSans-6c" transform="translate(1267.310547 0)"/>
     <use xlink:href="#DejaVuSans-65" transform="translate(1295.09375 0)"/>
     <use xlink:href="#DejaVuSans-73" transform="translate(1356.617188 0)"/>
     <use xlink:href="#DejaVuSans-20" transform="translate(1408.716797 0)"/>
     <use xlink:href="#DejaVuSans-65" transform="translate(1440.503906 0)"/>
     <use xlink:href="#DejaVuSans-78" transform="translate(1500.277344 0)"/>
     <use xlink:href="#DejaVuSans-63" transform="translate(1557.707031 0)"/>
     <use xlink:href="#DejaVuSans-65" transform="translate(1612.6875 0)"/>
     <use xlink:href="#DejaVuSans-65" transform="translate(1674.210938 0)"/>
     <use xlink:href="#DejaVuSans-64" transform="translate(1735.734375 0)"/>
     <use xlink:href="#DejaVuSans-20" transform="translate(1799.210938 0)"/>
     <use xlink:href="#DejaVuSans-53" transform="translate(1830.998047 0)"/>
     <use xlink:href="#DejaVuSans-52" transform="translate(1894.474609 0)"/>
     <use xlink:href="#DejaVuSans-41" transform="translate(1959.957031 0)"/>
     <use xlink:href="#DejaVuSans-4d" transform="translate(2028.365234 0)"/>
     <use xlink:href="#DejaVuSans-20" transform="translate(2114.644531 0)"/>
     <use xlink:href="#DejaVuSans-61" transform="translate(2146.431641 0)"/>
     <use xlink:href="#DejaVuSans-6e" transform="translate(2207.710938 0)"/>
     <use xlink:href="#DejaVuSans-64" transform="translate(2271.089844 0)"/>
     <use xlink:href="#DejaVuSans-20" transform="translate(2334.566406 0)"/>
     <use xlink:href="#DejaVuSans-73" transform="translate(2366.353516 0)"/>
     <use xlink:href="#DejaVuSans-74" transform="translate(2418.453125 0)"/>
     <use xlink:href="#DejaVuSans-72" transform="translate(2457.662109 0)"/>
     <use xlink:href="#DejaVuSans-65" transform="translate(2496.525391 0)"/>
     <use xlink:href="#DejaVuSans-73" transform="translate(2558.048828 0)"/>
     <use xlink:href="#DejaVuSans-73" transform="translate(2610.148438 0)"/>
     <use xlink:href="#DejaVuSans-20" transform="translate(2662.248047 0)"/>
     <use xlink:href="#DejaVuSans-44" transform="translate(2694.035156 0)"/>
     <use xlink:href="#DejaVuSans-52" transform="translate(2771.037109 0)"/>
     <use xlink:href="#DejaVuSans-41" transform="translate(2836.519531 0)"/>
     <use xlink:href="#DejaVuSans-4d" transform="translate(2904.927734 0)"/>
     <use xlink:href="#DejaVuSans-20" transform="translate(2991.207031 0)"/>
     <use xlink:href="#DejaVuSans-68" transform="translate(3022.994141 0)"/>
     <use xlink:href="#DejaVuSans-65" transform="translate(3086.373047 0)"/>
     <use xlink:href="#DejaVuSans-61" transform="translate(3147.896484 0)"/>
     <use xlink:href="#DejaVuSans-64" transform="translate(3209.175781 0)"/>
     <use xlink:href="#DejaVuSans-72" transform="translate(3272.652344 0)"/>
     <use xlink:href="#DejaVuSans-6f" transform="translate(3311.515625 0)"/>
     <use xlink:href="#DejaVuSans-6f" transform="translate(3372.697266 0)"/>
     <use xlink:href="#DejaVuSans-6d" transform="translate(3433.878906 0)"/>
     <use xlink:href="#DejaVuSans-2c" transform="translate(3531.291016 0)"/>
     <use xlink:href="#DejaVuSans-20" transform="translate(3563.078125 0)"/>
     <use xlink:href="#DejaVuSans-77" transform="translate(3594.865234 0)"/>
     <use xlink:href="#DejaVuSans-68" transform="translate(3676.652344 0)"/>
     <use xlink:href="#DejaVuSans-69" transform="translate(3740.03125 0)"/>
     <use xlink:href="#DejaVuSans-63" transform="translate(3767.814453 0)"/>
     <use xlink:href="#DejaVuSans-68" transform="translate(3822.794922 0)"/>
     <use xlink:href="#DejaVuSans-20" transform="translate(3886.173828 0)"/>
     <use xlink:href="#DejaVuSans-6d" transform="translate(3917.960938 0)"/>
     <use xlink:href="#DejaVuSans-6f" transform="translate(4015.373047 0)"/>
     <use xlink:href="#DejaVuSans-74" transform="translate(4076.554688 0)"/>
     <use xlink:href="#DejaVuSans-69" transform="translate(4115.763672 0)"/>
     <use xlink:href="#DejaVuSans-76" transform="translate(4143.546875 0)"/>
     <use xlink:href="#DejaVuSans-61" transform="translate(4202.726562 0)"/>
     <use xlink:href="#DejaVuSans-74" transform="translate(4264.005859 0)"/>
     <use xlink:href="#DejaVuSans-65" transform="translate(4303.214844 0)"/>
     <use xlink:href="#DejaVuSans-73" transform="translate(4364.738281 0)"/>
     <use xlink:href="#DejaVuSans-20" transform="translate(4416.837891 0)"/>
     <use xlink:href="#DejaVuSans-71" transform="translate(4448.625 0)"/>
     <use xlink:href="#DejaVuSans-75" transform="translate(4512.101562 0)"/>
     <use xlink:href="#DejaVuSans-61" transform="translate(4575.480469 0)"/>
     <use xlink:href="#DejaVuSans-6e" transform="translate(4636.759766 0)"/>
     <use xlink:href="#DejaVuSans-74" transform="translate(4700.138672 0)"/>
     <use xlink:href="#DejaVuSans-69" transform="translate(4739.347656 0)"/>
     <use xlink:href="#DejaVuSans-7a" transform="translate(4767.130859 0)"/>
     <use xlink:href="#DejaVuSans-61" transform="translate(4819.621094 0)"/>
     <use xlink:href="#DejaVuSans-74" transform="translate(4880.900391 0)"/>
     <use xlink:href="#DejaVuSans-69" transform="translate(4920.109375 0)"/>
     <use xlink:href="#DejaVuSans-6f" transform="translate(4947.892578 0)"/>
     <use xlink:href="#DejaVuSans-6e" transform="translate(5009.074219 0)"/>
     <use xlink:href="#DejaVuSans-2e" transform="translate(5072.453125 0)"/>
    </g>
   </g>
   <g id="text_13">
    <!-- Memory hierarchy gap on SSD controllers (illustrative) -->
    <g style="fill: #1e293b" transform="translate(75.05352 15.558281) scale(0.11 -0.11)">
     <defs>
      <path id="DejaVuSans-Bold-4d" d="M 588 4666 
L 2119 4666 
L 3181 2169 
L 4250 4666 
L 5778 4666 
L 5778 0 
L 4641 0 
L 4641 3413 
L 3566 897 
L 2803 897 
L 1728 3413 
L 1728 0 
L 588 0 
L 588 4666 
z
" transform="scale(0.015625)"/>
      <path id="DejaVuSans-Bold-65" d="M 4031 1759 
L 4031 1441 
L 1416 1441 
Q 1456 1047 1700 850 
Q 1944 653 2381 653 
Q 2734 653 3104 758 
Q 3475 863 3866 1075 
L 3866 213 
Q 3469 63 3072 -14 
Q 2675 -91 2278 -91 
Q 1328 -91 801 392 
Q 275 875 275 1747 
Q 275 2603 792 3093 
Q 1309 3584 2216 3584 
Q 3041 3584 3536 3087 
Q 4031 2591 4031 1759 
z
M 2881 2131 
Q 2881 2450 2695 2645 
Q 2509 2841 2209 2841 
Q 1884 2841 1681 2658 
Q 1478 2475 1428 2131 
L 2881 2131 
z
" transform="scale(0.015625)"/>
      <path id="DejaVuSans-Bold-6d" d="M 3781 2919 
Q 3994 3244 4286 3414 
Q 4578 3584 4928 3584 
Q 5531 3584 5847 3212 
Q 6163 2841 6163 2131 
L 6163 0 
L 5038 0 
L 5038 1825 
Q 5041 1866 5042 1909 
Q 5044 1953 5044 2034 
Q 5044 2406 4934 2573 
Q 4825 2741 4581 2741 
Q 4263 2741 4089 2478 
Q 3916 2216 3909 1719 
L 3909 0 
L 2784 0 
L 2784 1825 
Q 2784 2406 2684 2573 
Q 2584 2741 2328 2741 
Q 2006 2741 1831 2477 
Q 1656 2213 1656 1722 
L 1656 0 
L 531 0 
L 531 3500 
L 1656 3500 
L 1656 2988 
Q 1863 3284 2130 3434 
Q 2397 3584 2719 3584 
Q 3081 3584 3359 3409 
Q 3638 3234 3781 2919 
z
" transform="scale(0.015625)"/>
      <path id="DejaVuSans-Bold-6f" d="M 2203 2784 
Q 1831 2784 1636 2517 
Q 1441 2250 1441 1747 
Q 1441 1244 1636 976 
Q 1831 709 2203 709 
Q 2569 709 2762 976 
Q 2956 1244 2956 1747 
Q 2956 2250 2762 2517 
Q 2569 2784 2203 2784 
z
M 2203 3584 
Q 3106 3584 3614 3096 
Q 4122 2609 4122 1747 
Q 4122 884 3614 396 
Q 3106 -91 2203 -91 
Q 1297 -91 786 396 
Q 275 884 275 1747 
Q 275 2609 786 3096 
Q 1297 3584 2203 3584 
z
" transform="scale(0.015625)"/>
      <path id="DejaVuSans-Bold-72" d="M 3138 2547 
Q 2991 2616 2845 2648 
Q 2700 2681 2553 2681 
Q 2122 2681 1889 2404 
Q 1656 2128 1656 1613 
L 1656 0 
L 538 0 
L 538 3500 
L 1656 3500 
L 1656 2925 
Q 1872 3269 2151 3426 
Q 2431 3584 2822 3584 
Q 2878 3584 2943 3579 
Q 3009 3575 3134 3559 
L 3138 2547 
z
" transform="scale(0.015625)"/>
      <path id="DejaVuSans-Bold-79" d="M 78 3500 
L 1197 3500 
L 2138 1125 
L 2938 3500 
L 4056 3500 
L 2584 -331 
Q 2363 -916 2067 -1148 
Q 1772 -1381 1288 -1381 
L 641 -1381 
L 641 -647 
L 991 -647 
Q 1275 -647 1404 -556 
Q 1534 -466 1606 -231 
L 1638 -134 
L 78 3500 
z
" transform="scale(0.015625)"/>
      <path id="DejaVuSans-Bold-20" transform="scale(0.015625)"/>
      <path id="DejaVuSans-Bold-68" d="M 4056 2131 
L 4056 0 
L 2931 0 
L 2931 347 
L 2931 1625 
Q 2931 2084 2911 2256 
Q 2891 2428 2841 2509 
Q 2775 2619 2662 2680 
Q 2550 2741 2406 2741 
Q 2056 2741 1856 2470 
Q 1656 2200 1656 1722 
L 1656 0 
L 538 0 
L 538 4863 
L 1656 4863 
L 1656 2988 
Q 1909 3294 2193 3439 
Q 2478 3584 2822 3584 
Q 3428 3584 3742 3212 
Q 4056 2841 4056 2131 
z
" transform="scale(0.015625)"/>
      <path id="DejaVuSans-Bold-69" d="M 538 3500 
L 1656 3500 
L 1656 0 
L 538 0 
L 538 3500 
z
M 538 4863 
L 1656 4863 
L 1656 3950 
L 538 3950 
L 538 4863 
z
" transform="scale(0.015625)"/>
      <path id="DejaVuSans-Bold-61" d="M 2106 1575 
Q 1756 1575 1579 1456 
Q 1403 1338 1403 1106 
Q 1403 894 1545 773 
Q 1688 653 1941 653 
Q 2256 653 2472 879 
Q 2688 1106 2688 1447 
L 2688 1575 
L 2106 1575 
z
M 3816 1997 
L 3816 0 
L 2688 0 
L 2688 519 
Q 2463 200 2181 54 
Q 1900 -91 1497 -91 
Q 953 -91 614 226 
Q 275 544 275 1050 
Q 275 1666 698 1953 
Q 1122 2241 2028 2241 
L 2688 2241 
L 2688 2328 
Q 2688 2594 2478 2717 
Q 2269 2841 1825 2841 
Q 1466 2841 1156 2769 
Q 847 2697 581 2553 
L 581 3406 
Q 941 3494 1303 3539 
Q 1666 3584 2028 3584 
Q 2975 3584 3395 3211 
Q 3816 2838 3816 1997 
z
" transform="scale(0.015625)"/>
      <path id="DejaVuSans-Bold-63" d="M 3366 3391 
L 3366 2478 
Q 3138 2634 2908 2709 
Q 2678 2784 2431 2784 
Q 1963 2784 1702 2511 
Q 1441 2238 1441 1747 
Q 1441 1256 1702 982 
Q 1963 709 2431 709 
Q 2694 709 2930 787 
Q 3166 866 3366 1019 
L 3366 103 
Q 3103 6 2833 -42 
Q 2563 -91 2291 -91 
Q 1344 -91 809 395 
Q 275 881 275 1747 
Q 275 2613 809 3098 
Q 1344 3584 2291 3584 
Q 2566 3584 2833 3536 
Q 3100 3488 3366 3391 
z
" transform="scale(0.015625)"/>
      <path id="DejaVuSans-Bold-67" d="M 2919 594 
Q 2688 288 2409 144 
Q 2131 0 1766 0 
Q 1125 0 706 504 
Q 288 1009 288 1791 
Q 288 2575 706 3076 
Q 1125 3578 1766 3578 
Q 2131 3578 2409 3434 
Q 2688 3291 2919 2981 
L 2919 3500 
L 4044 3500 
L 4044 353 
Q 4044 -491 3511 -936 
Q 2978 -1381 1966 -1381 
Q 1638 -1381 1331 -1331 
Q 1025 -1281 716 -1178 
L 716 -306 
Q 1009 -475 1290 -558 
Q 1572 -641 1856 -641 
Q 2406 -641 2662 -400 
Q 2919 -159 2919 353 
L 2919 594 
z
M 2181 2772 
Q 1834 2772 1640 2515 
Q 1447 2259 1447 1791 
Q 1447 1309 1634 1061 
Q 1822 813 2181 813 
Q 2531 813 2725 1069 
Q 2919 1325 2919 1791 
Q 2919 2259 2725 2515 
Q 2531 2772 2181 2772 
z
" transform="scale(0.015625)"/>
      <path id="DejaVuSans-Bold-70" d="M 1656 506 
L 1656 -1331 
L 538 -1331 
L 538 3500 
L 1656 3500 
L 1656 2988 
Q 1888 3294 2169 3439 
Q 2450 3584 2816 3584 
Q 3463 3584 3878 3070 
Q 4294 2556 4294 1747 
Q 4294 938 3878 423 
Q 3463 -91 2816 -91 
Q 2450 -91 2169 54 
Q 1888 200 1656 506 
z
M 2400 2772 
Q 2041 2772 1848 2508 
Q 1656 2244 1656 1747 
Q 1656 1250 1848 986 
Q 2041 722 2400 722 
Q 2759 722 2948 984 
Q 3138 1247 3138 1747 
Q 3138 2247 2948 2509 
Q 2759 2772 2400 2772 
z
" transform="scale(0.015625)"/>
      <path id="DejaVuSans-Bold-6e" d="M 4056 2131 
L 4056 0 
L 2931 0 
L 2931 347 
L 2931 1631 
Q 2931 2084 2911 2256 
Q 2891 2428 2841 2509 
Q 2775 2619 2662 2680 
Q 2550 2741 2406 2741 
Q 2056 2741 1856 2470 
Q 1656 2200 1656 1722 
L 1656 0 
L 538 0 
L 538 3500 
L 1656 3500 
L 1656 2988 
Q 1909 3294 2193 3439 
Q 2478 3584 2822 3584 
Q 3428 3584 3742 3212 
Q 4056 2841 4056 2131 
z
" transform="scale(0.015625)"/>
      <path id="DejaVuSans-Bold-53" d="M 3834 4519 
L 3834 3531 
Q 3450 3703 3084 3790 
Q 2719 3878 2394 3878 
Q 1963 3878 1756 3759 
Q 1550 3641 1550 3391 
Q 1550 3203 1689 3098 
Q 1828 2994 2194 2919 
L 2706 2816 
Q 3484 2659 3812 2340 
Q 4141 2022 4141 1434 
Q 4141 663 3683 286 
Q 3225 -91 2284 -91 
Q 1841 -91 1394 -6 
Q 947 78 500 244 
L 500 1259 
Q 947 1022 1364 901 
Q 1781 781 2169 781 
Q 2563 781 2772 912 
Q 2981 1044 2981 1288 
Q 2981 1506 2839 1625 
Q 2697 1744 2272 1838 
L 1806 1941 
Q 1106 2091 782 2419 
Q 459 2747 459 3303 
Q 459 4000 909 4375 
Q 1359 4750 2203 4750 
Q 2588 4750 2994 4692 
Q 3400 4634 3834 4519 
z
" transform="scale(0.015625)"/>
      <path id="DejaVuSans-Bold-44" d="M 1791 3756 
L 1791 909 
L 2222 909 
Q 2959 909 3348 1275 
Q 3738 1641 3738 2338 
Q 3738 3031 3350 3393 
Q 2963 3756 2222 3756 
L 1791 3756 
z
M 588 4666 
L 1856 4666 
Q 2919 4666 3439 4514 
Q 3959 4363 4331 4000 
Q 4659 3684 4818 3271 
Q 4978 2859 4978 2338 
Q 4978 1809 4818 1395 
Q 4659 981 4331 666 
Q 3956 303 3431 151 
Q 2906 0 1856 0 
L 588 0 
L 588 4666 
z
" transform="scale(0.015625)"/>
      <path id="DejaVuSans-Bold-74" d="M 1759 4494 
L 1759 3500 
L 2913 3500 
L 2913 2700 
L 1759 2700 
L 1759 1216 
Q 1759 972 1856 886 
Q 1953 800 2241 800 
L 2816 800 
L 2816 0 
L 1856 0 
Q 1194 0 917 276 
Q 641 553 641 1216 
L 641 2700 
L 84 2700 
L 84 3500 
L 641 3500 
L 641 4494 
L 1759 4494 
z
" transform="scale(0.015625)"/>
      <path id="DejaVuSans-Bold-6c" d="M 538 4863 
L 1656 4863 
L 1656 0 
L 538 0 
L 538 4863 
z
" transform="scale(0.015625)"/>
      <path id="DejaVuSans-Bold-73" d="M 3272 3391 
L 3272 2541 
Q 2913 2691 2578 2766 
Q 2244 2841 1947 2841 
Q 1628 2841 1473 2761 
Q 1319 2681 1319 2516 
Q 1319 2381 1436 2309 
Q 1553 2238 1856 2203 
L 2053 2175 
Q 2913 2066 3209 1816 
Q 3506 1566 3506 1031 
Q 3506 472 3093 190 
Q 2681 -91 1863 -91 
Q 1516 -91 1145 -36 
Q 775 19 384 128 
L 384 978 
Q 719 816 1070 734 
Q 1422 653 1784 653 
Q 2113 653 2278 743 
Q 2444 834 2444 1013 
Q 2444 1163 2330 1236 
Q 2216 1309 1875 1350 
L 1678 1375 
Q 931 1469 631 1722 
Q 331 1975 331 2491 
Q 331 3047 712 3315 
Q 1094 3584 1881 3584 
Q 2191 3584 2531 3537 
Q 2872 3491 3272 3391 
z
" transform="scale(0.015625)"/>
      <path id="DejaVuSans-Bold-28" d="M 2413 -844 
L 1484 -844 
Q 1006 -72 778 623 
Q 550 1319 550 2003 
Q 550 2688 779 3389 
Q 1009 4091 1484 4856 
L 2413 4856 
Q 2013 4116 1813 3408 
Q 1613 2700 1613 2009 
Q 1613 1319 1811 609 
Q 2009 -100 2413 -844 
z
" transform="scale(0.015625)"/>
      <path id="DejaVuSans-Bold-75" d="M 500 1363 
L 500 3500 
L 1625 3500 
L 1625 3150 
Q 1625 2866 1622 2436 
Q 1619 2006 1619 1863 
Q 1619 1441 1641 1255 
Q 1663 1069 1716 984 
Q 1784 875 1895 815 
Q 2006 756 2150 756 
Q 2500 756 2700 1025 
Q 2900 1294 2900 1772 
L 2900 3500 
L 4019 3500 
L 4019 0 
L 2900 0 
L 2900 506 
Q 2647 200 2364 54 
Q 2081 -91 1741 -91 
Q 1134 -91 817 281 
Q 500 653 500 1363 
z
" transform="scale(0.015625)"/>
      <path id="DejaVuSans-Bold-76" d="M 97 3500 
L 1216 3500 
L 2088 1081 
L 2956 3500 
L 4078 3500 
L 2700 0 
L 1472 0 
L 97 3500 
z
" transform="scale(0.015625)"/>
      <path id="DejaVuSans-Bold-29" d="M 513 -844 
Q 913 -100 1113 609 
Q 1313 1319 1313 2009 
Q 1313 2700 1113 3408 
Q 913 4116 513 4856 
L 1441 4856 
Q 1916 4091 2145 3389 
Q 2375 2688 2375 2003 
Q 2375 1319 2147 623 
Q 1919 -72 1441 -844 
L 513 -844 
z
" transform="scale(0.015625)"/>
     </defs>
     <use xlink:href="#DejaVuSans-Bold-4d"/>
     <use xlink:href="#DejaVuSans-Bold-65" transform="translate(99.511719 0)"/>
     <use xlink:href="#DejaVuSans-Bold-6d" transform="translate(167.333984 0)"/>
     <use xlink:href="#DejaVuSans-Bold-6f" transform="translate(271.533203 0)"/>
     <use xlink:href="#DejaVuSans-Bold-72" transform="translate(340.234375 0)"/>
     <use xlink:href="#DejaVuSans-Bold-79" transform="translate(389.550781 0)"/>
     <use xlink:href="#DejaVuSans-Bold-20" transform="translate(454.736328 0)"/>
     <use xlink:href="#DejaVuSans-Bold-68" transform="translate(489.550781 0)"/>
     <use xlink:href="#DejaVuSans-Bold-69" transform="translate(560.742188 0)"/>
     <use xlink:href="#DejaVuSans-Bold-65" transform="translate(595.019531 0)"/>
     <use xlink:href="#DejaVuSans-Bold-72" transform="translate(662.841797 0)"/>
     <use xlink:href="#DejaVuSans-Bold-61" transform="translate(712.158203 0)"/>
     <use xlink:href="#DejaVuSans-Bold-72" transform="translate(779.638672 0)"/>
     <use xlink:href="#DejaVuSans-Bold-63" transform="translate(828.955078 0)"/>
     <use xlink:href="#DejaVuSans-Bold-68" transform="translate(888.232422 0)"/>
     <use xlink:href="#DejaVuSans-Bold-79" transform="translate(959.423828 0)"/>
     <use xlink:href="#DejaVuSans-Bold-20" transform="translate(1024.609375 0)"/>
     <use xlink:href="#DejaVuSans-Bold-67" transform="translate(1059.423828 0)"/>
     <use xlink:href="#DejaVuSans-Bold-61" transform="translate(1131.005859 0)"/>
     <use xlink:href="#DejaVuSans-Bold-70" transform="translate(1198.486328 0)"/>
     <use xlink:href="#DejaVuSans-Bold-20" transform="translate(1270.068359 0)"/>
     <use xlink:href="#DejaVuSans-Bold-6f" transform="translate(1304.882812 0)"/>
     <use xlink:href="#DejaVuSans-Bold-6e" transform="translate(1373.583984 0)"/>
     <use xlink:href="#DejaVuSans-Bold-20" transform="translate(1444.775391 0)"/>
     <use xlink:href="#DejaVuSans-Bold-53" transform="translate(1479.589844 0)"/>
     <use xlink:href="#DejaVuSans-Bold-53" transform="translate(1547.111328 0)"/>
     <use xlink:href="#DejaVuSans-Bold-44" transform="translate(1619.132812 0)"/>
     <use xlink:href="#DejaVuSans-Bold-20" transform="translate(1702.140625 0)"/>
     <use xlink:href="#DejaVuSans-Bold-63" transform="translate(1736.955078 0)"/>
     <use xlink:href="#DejaVuSans-Bold-6f" transform="translate(1796.232422 0)"/>
     <use xlink:href="#DejaVuSans-Bold-6e" transform="translate(1864.933594 0)"/>
     <use xlink:href="#DejaVuSans-Bold-74" transform="translate(1936.125 0)"/>
     <use xlink:href="#DejaVuSans-Bold-72" transform="translate(1983.927734 0)"/>
     <use xlink:href="#DejaVuSans-Bold-6f" transform="translate(2033.244141 0)"/>
     <use xlink:href="#DejaVuSans-Bold-6c" transform="translate(2101.945312 0)"/>
     <use xlink:href="#DejaVuSans-Bold-6c" transform="translate(2136.222656 0)"/>
     <use xlink:href="#DejaVuSans-Bold-65" transform="translate(2170.5 0)"/>
     <use xlink:href="#DejaVuSans-Bold-72" transform="translate(2238.322266 0)"/>
     <use xlink:href="#DejaVuSans-Bold-73" transform="translate(2287.638672 0)"/>
     <use xlink:href="#DejaVuSans-Bold-20" transform="translate(2347.160156 0)"/>
     <use xlink:href="#DejaVuSans-Bold-28" transform="translate(2381.974609 0)"/>
     <use xlink:href="#DejaVuSans-Bold-69" transform="translate(2427.677734 0)"/>
     <use xlink:href="#DejaVuSans-Bold-6c" transform="translate(2461.955078 0)"/>
     <use xlink:href="#DejaVuSans-Bold-6c" transform="translate(2496.232422 0)"/>
     <use xlink:href="#DejaVuSans-Bold-75" transform="translate(2530.509766 0)"/>
     <use xlink:href="#DejaVuSans-Bold-73" transform="translate(2601.701172 0)"/>
     <use xlink:href="#DejaVuSans-Bold-74" transform="translate(2661.222656 0)"/>
     <use xlink:href="#DejaVuSans-Bold-72" transform="translate(2709.025391 0)"/>
     <use xlink:href="#DejaVuSans-Bold-61" transform="translate(2758.341797 0)"/>
     <use xlink:href="#DejaVuSans-Bold-74" transform="translate(2825.822266 0)"/>
     <use xlink:href="#DejaVuSans-Bold-69" transform="translate(2873.625 0)"/>
     <use xlink:href="#DejaVuSans-Bold-76" transform="translate(2907.902344 0)"/>
     <use xlink:href="#DejaVuSans-Bold-65" transform="translate(2973.087891 0)"/>
     <use xlink:href="#DejaVuSans-Bold-29" transform="translate(3040.910156 0)"/>
    </g>
   </g>
  </g>
 </g>
 <defs>
  <clipPath id="p55ff1df5af">
   <rect x="49.978125" y="21.558281" width="389.677821" height="166.41984"/>
  </clipPath>
 </defs>
</svg>
